<svg width="100" height="100" viewBox="0 0 100 100" fill="none" xmlns="http://www.w3.org/2000/svg">
<path d="M85.4421 0H14.5583C11.8665 0 9.67776 2.18873 9.67776 4.88052V49.9565C9.67776 52.65 11.8665 54.8387 14.5583 54.8387H27.4195V51.6129V41.9355C27.4195 38.3725 30.3081 35.4839 33.8711 35.4839C37.4341 35.4839 40.3228 38.3725 40.3228 41.9355V51.6129V54.8387H85.4421C88.1338 54.8387 90.3226 52.65 90.3226 49.9582V4.88052C90.3229 2.18873 88.1342 0 85.4421 0ZM29.0326 27.4195C24.5794 27.4195 20.9679 23.8083 20.9679 19.3548C20.9679 14.9013 24.5791 11.2902 29.0326 11.2902C33.4861 11.2902 37.0973 14.9013 37.0973 19.3548C37.0973 23.8083 33.4858 27.4195 29.0326 27.4195Z" fill="#CE152F"/>
<path d="M29.0326 29.0323C23.6955 29.0323 19.3552 24.692 19.3552 19.3548C19.3552 14.0177 23.6955 9.67742 29.0326 9.67742C34.3697 9.67742 38.71 14.0177 38.71 19.3548C38.71 24.692 34.3697 29.0323 29.0326 29.0323ZM29.0326 12.9032C25.4744 12.9032 22.581 15.7966 22.581 19.3548C22.581 22.913 25.4744 25.8065 29.0326 25.8065C32.5908 25.8065 35.4842 22.913 35.4842 19.3548C35.4842 15.7966 32.5908 12.9032 29.0326 12.9032Z" fill="#333333"/>
<path d="M80.6455 9.67742H45.1617V12.9032H80.6455V9.67742Z" fill="#333333"/>
<path d="M80.6455 17.7421H45.1617V20.9679H80.6455V17.7421Z" fill="#333333"/>
<path d="M80.6455 25.8065H45.1617V29.0323H80.6455V25.8065Z" fill="#333333"/>
<path d="M80.6455 33.8712H54.8391V37.097H80.6455V33.8712Z" fill="#333333"/>
<path d="M50.8067 100C37.0212 100 25.8068 88.7855 25.8068 75.0001V41.9355C25.8068 37.4889 29.4245 33.8708 33.8715 33.8708C38.3185 33.8708 41.9362 37.4885 41.9362 41.9355V56.4518H43.5492C49.7734 56.4518 54.8397 61.5178 54.8397 67.7423C54.8397 73.9668 49.7738 79.0328 43.5492 79.0328V75.807C47.9959 75.807 51.6139 72.1892 51.6139 67.7423C51.6139 63.2953 47.9962 59.6776 43.5492 59.6776H38.71V41.9355C38.71 39.2678 36.5392 37.0966 33.8711 37.0966C31.2031 37.0966 29.0323 39.2674 29.0323 41.9355V75.0001C29.0323 87.0066 38.7998 96.7742 50.8064 96.7742C62.8129 96.7742 72.5805 87.0066 72.5805 75.0001V54.8387H75.8063V75.0001C75.807 88.7855 64.5922 100 50.8067 100Z" fill="#333333"/>
</svg>
