<svg width="100" height="100" viewBox="0 0 100 100" fill="none" xmlns="http://www.w3.org/2000/svg">
<g clip-path="url(#clip0)">
<path d="M6.45185 41.9354H25.8067V61.2903H6.45185V41.9354Z" fill="#C4C4C4"/>
<path d="M6.45185 69.3549H25.8067V88.7097H6.45185V69.3549Z" fill="#C4C4C4"/>
<path d="M48.3873 32.2581H6.45185V16.129H48.3873V32.2581Z" fill="#C4C4C4"/>
<path d="M71.0696 51.6129C72.028 51.6129 72.955 51.8933 73.7536 52.4257L85.0179 59.9357C86.3488 60.8209 87.8956 61.2903 89.492 61.2903H100V58.0645H89.4935C88.5359 58.0645 87.6066 57.7841 86.808 57.2518L82.2583 54.2181V0H20.968V9.67742H0.000244141V100H61.2906V90.3226H82.2583V76.7531C82.3599 76.7287 82.4646 76.7208 82.5662 76.6964L90.0692 74.8212C91.7341 74.4046 93.447 74.1936 95.1615 74.1936H100V70.9677H95.1615C93.184 70.9677 91.2065 71.2111 89.2872 71.6907L81.7842 73.5659C77.9276 74.529 73.8229 74.3723 70.0552 73.1162L67.3374 72.2097C64.8629 71.3851 62.286 70.9677 59.6777 70.9677H45.6034C45.6034 68.3003 47.7746 66.129 50.4421 66.129H68.184C70.8522 66.129 73.0227 63.9578 73.0227 61.2903C73.0227 58.8158 71.1483 56.7934 68.7502 56.5083L70.0741 51.6129H71.0696ZM69.0322 76.1758C71.5067 77.002 74.0843 77.4194 76.6919 77.4194C77.4747 77.4194 78.2552 77.3516 79.0325 77.276V87.0968H61.2906V81.821C61.8568 81.1681 62.2955 80.3955 62.531 79.5213L63.8517 74.6291C64.6825 74.7984 65.5063 75 66.3151 75.2709L69.0322 76.1758ZM60.6196 74.2306L59.4178 78.6786C59.1051 79.8371 58.049 80.6452 56.8504 80.6452H56.3274C54.8618 80.6452 53.6694 79.4536 53.6694 77.9872C53.6694 77.7517 53.7002 77.5194 53.7616 77.2934L54.5988 74.1936H59.6777C59.9919 74.1936 60.3053 74.218 60.6196 74.2306ZM51.2564 74.1936L50.6468 76.4499C50.5114 76.95 50.4436 77.4658 50.4436 77.9872C50.4436 80.1679 51.6502 82.0533 53.4166 83.0692L52.9102 85.0917L56.0392 85.8745L56.5409 83.871H56.8504C57.2662 83.871 57.6694 83.8127 58.0648 83.7292V96.7742H3.22605V12.9032H24.1938V3.22581H79.0325V52.0681L75.5437 49.7417C74.2135 48.8565 72.6667 48.3871 71.0696 48.3871H70.9451L77.6582 23.5501C77.7937 23.05 77.8614 22.5342 77.8614 22.0128C77.8614 18.7681 75.2215 16.129 71.9776 16.129H71.4547C68.8022 16.129 66.4663 17.9176 65.7741 20.4787L61.2906 37.0692V9.67742H27.4196V12.9032H58.0648V48.3871H54.7279C52.9725 48.3871 51.3194 48.9691 49.9372 50H33.8712V53.2258H46.5484L43.3226 56.4516H33.8712V59.6774H40.0984L37.4034 62.3724C36.452 63.3222 35.9275 64.587 35.9275 65.9337C35.9275 68.7098 38.1854 70.9677 40.9631 70.9677C41.46 70.9677 41.9389 70.8725 42.4035 70.7338C42.402 70.8126 42.3791 70.8874 42.3791 70.9677C42.3791 72.7468 43.8258 74.1936 45.6049 74.1936H51.2564ZM63.6808 62.9032H57.6505L64.4612 37.7032L69.9938 39.5468L63.6808 62.9032ZM51.3068 53.0289C52.2085 52.1287 53.4552 51.6129 54.7279 51.6129H57.3599L56.0439 56.4808C54.0034 56.5548 52.0904 57.3612 50.6389 58.8127L42.2405 67.2111C41.9034 67.5482 41.4372 67.7419 40.9615 67.7419C39.9629 67.7419 39.1517 66.9308 39.1517 65.9337C39.1517 65.4502 39.3407 64.9965 39.6825 64.6547L51.3068 53.0289ZM52.9197 61.0934C53.5293 60.4839 54.305 60.068 55.1327 59.8515L54.3081 62.9032H51.1115L52.9197 61.0934ZM74.5435 22.7082L72.5683 30.0159L67.0357 28.1723L68.8873 21.3214C69.2015 20.1629 70.2568 19.3548 71.4547 19.3548H71.9776C73.444 19.3548 74.6356 20.5464 74.6356 22.0128C74.6356 22.2483 74.6049 22.4806 74.5435 22.7082ZM66.1939 31.2917L71.7264 33.1354L70.8357 36.4274L65.3031 34.5837L66.1939 31.2917ZM68.184 59.6774C69.0731 59.6774 69.7969 60.402 69.7969 61.2903C69.7969 62.1787 69.0731 62.9032 68.184 62.9032H67.0216L67.8942 59.6774H68.184Z" fill="black"/>
<path d="M12.9035 22.5807H16.1293V25.8065H12.9035V22.5807Z" fill="black"/>
<path d="M19.3551 22.5807H22.5809V25.8065H19.3551V22.5807Z" fill="black"/>
<path d="M25.8067 22.5807H29.0325V25.8065H25.8067V22.5807Z" fill="black"/>
<path d="M32.2583 22.5807H35.4841V25.8065H32.2583V22.5807Z" fill="black"/>
<path d="M38.7099 22.5807H41.9357V25.8065H38.7099V22.5807Z" fill="black"/>
<path d="M33.3987 38.2372L31.1179 35.9564L16.1293 50.9451L14.0438 48.8596L11.7631 51.1404L16.1293 55.5066L33.3987 38.2372Z" fill="black"/>
<path d="M31.1179 63.3757L16.1293 78.3644L14.0438 76.279L11.7631 78.5597L16.1293 82.9259L33.3987 65.6565L31.1179 63.3757Z" fill="black"/>
<path d="M51.6131 88.7097H54.839V91.9355H51.6131V88.7097Z" fill="black"/>
<path d="M30.6454 88.7097H48.3873V91.9355H30.6454V88.7097Z" fill="black"/>
<path d="M33.8712 43.5483H54.839V46.7742H33.8712V43.5483Z" fill="black"/>
</g>
<defs>
<clipPath id="clip0">
<rect width="100" height="100" fill="white" transform="translate(0.000244141)"/>
</clipPath>
</defs>
</svg>
