<svg width="100" height="100" viewBox="0 0 100 100" fill="none" xmlns="http://www.w3.org/2000/svg">
<path d="M50 75.8064C64.2525 75.8064 75.8064 64.2525 75.8064 50C75.8064 35.7475 64.2525 24.1935 50 24.1935C35.7475 24.1935 24.1935 35.7475 24.1935 50C24.1935 64.2525 35.7475 75.8064 50 75.8064Z" fill="#CE152F"/>
<path d="M50 14.5161C30.4339 14.5161 14.5161 30.4339 14.5161 50C14.5161 69.5661 30.4339 85.4839 50 85.4839C69.5661 85.4839 85.4839 69.5661 85.4839 50C85.4839 30.4339 69.5661 14.5161 50 14.5161ZM50 82.2581C32.2129 82.2581 17.7419 67.7871 17.7419 50C17.7419 32.2129 32.2129 17.7419 50 17.7419C67.7871 17.7419 82.2581 32.2129 82.2581 50C82.2581 67.7871 67.7871 82.2581 50 82.2581Z" fill="#333333"/>
<path d="M48.3871 48.3871H27.4194V51.6129H51.6129V27.4194H48.3871V48.3871Z" fill="#333333"/>
<path d="M50 24.1935C50.8908 24.1935 51.6129 23.4714 51.6129 22.5806C51.6129 21.6898 50.8908 20.9677 50 20.9677C49.1092 20.9677 48.3871 21.6898 48.3871 22.5806C48.3871 23.4714 49.1092 24.1935 50 24.1935Z" fill="#333333"/>
<path d="M50 79.0323C50.8908 79.0323 51.6129 78.3101 51.6129 77.4194C51.6129 76.5286 50.8908 75.8065 50 75.8065C49.1092 75.8065 48.3871 76.5286 48.3871 77.4194C48.3871 78.3101 49.1092 79.0323 50 79.0323Z" fill="#333333"/>
<path d="M77.4194 51.6129C78.3101 51.6129 79.0323 50.8908 79.0323 50C79.0323 49.1092 78.3101 48.3871 77.4194 48.3871C76.5286 48.3871 75.8065 49.1092 75.8065 50C75.8065 50.8908 76.5286 51.6129 77.4194 51.6129Z" fill="#333333"/>
<path d="M22.5806 51.6129C23.4714 51.6129 24.1935 50.8908 24.1935 50C24.1935 49.1092 23.4714 48.3871 22.5806 48.3871C21.6899 48.3871 20.9677 49.1092 20.9677 50C20.9677 50.8908 21.6899 51.6129 22.5806 51.6129Z" fill="#333333"/>
<path d="M11.4048 68.7565L9.54032 73.4194C5.40806 66.3081 3.22581 58.2774 3.22581 50C3.22581 24.2097 24.2097 3.22581 50 3.22581C60.6661 3.22581 71.1048 6.91935 79.3952 13.6258L81.4242 11.1177C72.5613 3.94839 61.4016 0 50 0C22.429 0 0 22.429 0 50C0 58.9177 2.37419 67.5645 6.85968 75.2113L1.92903 74.2258L1.29677 77.3871L10.6758 79.2629L14.4016 69.9532L11.4048 68.7565Z" fill="#333333"/>
<path d="M14.5161 83.8709C15.4069 83.8709 16.129 83.1488 16.129 82.258C16.129 81.3673 15.4069 80.6451 14.5161 80.6451C13.6254 80.6451 12.9032 81.3673 12.9032 82.258C12.9032 83.1488 13.6254 83.8709 14.5161 83.8709Z" fill="#333333"/>
<path d="M93.1403 24.7887L98.071 25.7742L98.7048 22.6113L89.3258 20.7355L85.6 30.0452L88.5952 31.2419L90.4597 26.579C94.5919 33.6919 96.7742 41.7226 96.7742 50C96.7742 75.7903 75.7903 96.7742 50 96.7742C39.3339 96.7742 28.8952 93.0806 20.6048 86.3742L18.5758 88.8822C27.4387 96.0516 38.5984 100 50 100C77.571 100 100 77.571 100 50C100 41.0822 97.6258 32.4355 93.1403 24.7887Z" fill="#333333"/>
<path d="M85.4839 19.3548C86.3747 19.3548 87.0968 18.6327 87.0968 17.7419C87.0968 16.8511 86.3747 16.129 85.4839 16.129C84.5931 16.129 83.871 16.8511 83.871 17.7419C83.871 18.6327 84.5931 19.3548 85.4839 19.3548Z" fill="#333333"/>
</svg>
