<svg width="100" height="100" viewBox="0 0 100 100" fill="none" xmlns="http://www.w3.org/2000/svg">
<path d="M19.8092 76.4122H89.1414L99.046 23.5876H29.7138L19.8092 76.4122Z" fill="#C4C4C4"/>
<path d="M100 24.9348L98.0919 22.2407L59.5646 49.5309L39.0884 30.6282L36.8468 33.055L48.5027 43.8129L18.6125 75.2748L21.0058 77.5494L50.9277 46.0512L59.2906 53.7703L68.6852 47.1161L87.7447 77.2937L90.538 75.5308L71.3842 45.2042L100 24.9348Z" fill="#333333"/>
<path d="M30.8811 22.4209L28.5465 24.7554L33.4992 29.708L35.8337 27.3735L30.8811 22.4209Z" fill="#333333"/>
<path d="M28.0632 31.8416H6.60306V35.1431H28.0632V31.8416Z" fill="#333333"/>
<path d="M24.7617 48.3492H3.30154V51.6508H24.7617V48.3492Z" fill="#333333"/>
<path d="M21.4601 64.8569H0V68.1585H21.4601V64.8569Z" fill="#333333"/>
<path d="M87.4908 13.683H31.3647V16.9845H87.4908V13.683Z" fill="#333333"/>
<path d="M28.0632 13.683H19.8092V16.9845H28.0632V13.683Z" fill="#333333"/>
<path d="M80.8877 5.42932H24.7617V8.73085H80.8877V5.42932Z" fill="#333333"/>
<path d="M21.4602 5.42932H13.2061V8.73085H21.4602V5.42932Z" fill="#333333"/>
<path d="M56.1261 83.0153H16.5077V86.3168H56.1261V83.0153Z" fill="#333333"/>
<path d="M13.2065 83.0153H4.95248V86.3168H13.2065V83.0153Z" fill="#333333"/>
<path d="M49.5233 91.2692H11.5555V94.5707H49.5233V91.2692Z" fill="#333333"/>
<path d="M8.25401 91.2692H0V94.5707H8.25401V91.2692Z" fill="#333333"/>
</svg>
