<svg width="100" height="100" viewBox="0 0 100 100" fill="none" xmlns="http://www.w3.org/2000/svg">
<path d="M24.1312 50.1734L22.5453 39.0625H18.0797L16.4937 50.1734L20.3125 57.9859L24.1312 50.1734Z" fill="#C4C4C4"/>
<path d="M76.5188 28.7281L81.3844 33.5938L67.1875 47.7906L56.25 36.8531L31.25 61.8531V49.5875C38.125 47.2844 43.7562 42.2563 46.8094 35.6375L49.3812 30.0656L46.5453 28.7562L43.9719 34.3281C41.1344 40.4797 35.7703 45.0734 29.2578 46.9328L28.125 47.2594V92.1875C28.125 93.9109 26.7234 95.3125 25 95.3125C23.2766 95.3125 21.875 93.9109 21.875 92.1875V65.625H18.75V92.1875C18.75 93.9109 17.3484 95.3125 15.625 95.3125C13.9016 95.3125 12.5 93.9109 12.5 92.1875V46.875H9.375V68.75C6.79063 68.75 4.6875 66.6469 4.6875 64.0625V51.5625C4.6875 47.3484 7.0875 43.6891 10.5906 41.8625L20.3125 61.3063L30.9906 39.95L30.9578 39.9328C34.5016 38.8 37.4984 36.3094 39.2281 32.8516L44.0859 23.1344C44.2531 22.7984 44.5062 22.5063 44.8141 22.2891L43.0125 19.7344C42.2844 20.2484 41.6891 20.9406 41.2906 21.7359L36.4328 31.4531C34.7812 34.7562 31.6484 36.9438 28.0578 37.4016C30.0281 35.4234 31.25 32.6953 31.25 29.6875C31.25 23.6578 26.3438 18.75 20.3125 18.75C14.2812 18.75 9.375 23.6578 9.375 29.6875C9.375 32.8859 10.7641 35.7594 12.9594 37.7609C6.47656 39.0109 1.5625 44.7203 1.5625 51.5625V64.0625C1.5625 68.3703 5.06719 71.875 9.375 71.875V92.1875C9.375 95.6344 12.1781 98.4375 15.625 98.4375C17.5 98.4375 19.1656 97.5906 20.3125 96.2781C21.4594 97.5906 23.125 98.4375 25 98.4375H87.5V41.2719L88.2812 40.4906L93.1469 45.3563L97.3047 24.5703L76.5188 28.7281ZM20.3125 54.3187L13.5656 40.8266C14.2344 40.6984 14.9203 40.625 15.625 40.625H26.65C26.8281 40.625 27 40.5953 27.1781 40.5891L20.3125 54.3187ZM12.5 29.6875C12.5 25.3797 16.0047 21.875 20.3125 21.875C24.6203 21.875 28.125 25.3797 28.125 29.6875C28.125 33.9953 24.6203 37.5 20.3125 37.5C16.0047 37.5 12.5 33.9953 12.5 29.6875ZM37.5 95.3125H30.3813C30.9188 94.3891 31.25 93.3313 31.25 92.1875V75.6469L37.5 69.3969V95.3125ZM46.875 95.3125H40.625V66.2719L46.875 60.0219V95.3125ZM56.25 95.3125H50V56.8969L56.25 50.6469V95.3125ZM65.625 95.3125H59.375V53.7719L65.625 60.0219V95.3125ZM75 95.3125H68.75V60.0219L75 53.7719V95.3125ZM84.375 95.3125H78.125V50.6469L84.375 44.3969V95.3125ZM91.2281 39.0187L88.2812 36.0719L67.1875 57.1656L56.25 46.2281L31.25 71.2281V66.2719L56.25 41.2719L67.1875 52.2094L85.8031 33.5938L82.8562 30.6469L93.3203 28.5531L91.2281 39.0187Z" fill="black"/>
<path d="M59.375 35.9375C49.8984 35.9375 42.1875 28.2266 42.1875 18.75C42.1875 9.27344 49.8984 1.5625 59.375 1.5625C68.8516 1.5625 76.5625 9.27344 76.5625 18.75C76.5625 28.2266 68.8516 35.9375 59.375 35.9375Z" fill="#C4C4C4"/>
<path d="M59.375 17.1875C58.5141 17.1875 57.8125 16.4875 57.8125 15.625V14.0625H59.375C60.2359 14.0625 60.9375 14.7625 60.9375 15.625H64.0625C64.0625 13.5906 62.7516 11.8719 60.9375 11.225V7.8125H57.8125V10.9375H54.6875V15.625C54.6875 18.2094 56.7906 20.3125 59.375 20.3125C60.2359 20.3125 60.9375 21.0125 60.9375 21.875V23.4375H59.375C58.5141 23.4375 57.8125 22.7375 57.8125 21.875H54.6875C54.6875 23.9094 55.9984 25.6281 57.8125 26.275V29.6875H60.9375V26.5625H64.0625V21.875C64.0625 19.2906 61.9594 17.1875 59.375 17.1875Z" fill="black"/>
<path d="M67.1875 17.1875H70.3125V20.3125H67.1875V17.1875Z" fill="black"/>
<path d="M48.4375 17.1875H51.5625V20.3125H48.4375V17.1875Z" fill="black"/>
</svg>
