<svg width="100" height="100" viewBox="0 0 100 100" fill="none" xmlns="http://www.w3.org/2000/svg">
<path d="M79.4478 40.3349V30.6546H75.6386C75.1239 28.4668 74.2704 26.4033 73.091 24.4978L75.7822 21.8051L68.9381 14.961L66.2454 17.6522C64.3383 16.4728 62.2764 15.6193 60.0886 15.1046V11.2938H50.4083V15.103C48.2205 15.6177 46.1569 16.4712 44.2515 17.6506L41.5588 14.9594L34.7147 21.8035L37.4059 24.4962C36.2265 26.4033 35.373 28.4652 34.8583 30.653H31.0459V40.3333H34.8551C35.3698 42.5211 36.2233 44.5846 37.4027 46.4901L34.7115 49.1828L41.5555 56.0269L44.2531 53.3293C44.6049 53.5422 44.9759 53.752 45.3712 53.9633L46.8894 51.1173L48.7932 51.1189V46.632C44.9388 44.3991 42.3397 40.2398 42.3397 35.4657C42.3397 28.3377 48.1188 22.5585 55.2468 22.5585C62.3748 22.5585 68.154 28.3377 68.154 35.4657C68.154 40.2398 65.5548 44.3991 61.7004 46.632V51.1076L63.6317 51.106L65.166 53.9456C65.5451 53.7407 65.9017 53.5358 66.2389 53.3325L68.9365 56.0301L75.7805 49.1861L73.0894 46.4933C74.2688 44.5863 75.1223 42.5243 75.637 40.3366H79.4478V40.3349Z" fill="#C4C4C4"/>
<path d="M92.3243 37.092C92.3243 16.8987 75.9015 0.26137 55.7163 0.0032268C55.5582 0.0016134 55.4033 0 55.2468 0C37.8172 0 22.5835 12.4151 18.9163 29.6833C18.0096 33.9443 17.8966 38.3392 18.5775 42.7583L7.6709 62.2659L19.752 65.7492V85.4794H35.886V100H39.1128V82.2526H22.9788V63.3226L12.4708 60.2927L21.9462 43.3472L21.851 42.7857C21.1379 38.5812 21.2121 34.3976 22.0737 30.3545C25.4538 14.4318 39.5726 3.0106 55.6759 3.23002C74.1058 3.46558 89.0991 18.6573 89.0991 37.0936L89.1039 42.9809C89.112 55.9075 82.7487 68.0079 72.0793 75.3505L71.3807 75.8329V100H74.6075V77.5189C85.7303 69.531 92.3372 56.6851 92.3291 42.9793L92.3243 37.092Z" fill="#333333"/>
<path d="M69.7673 35.4641C69.7673 27.4568 63.254 20.9435 55.2467 20.9435C47.2395 20.9435 40.7262 27.4568 40.7262 35.4641C40.7262 40.3026 43.1769 44.8411 47.1798 47.5242V50.0669C45.3405 50.4412 43.953 52.0708 43.953 54.0181C43.953 55.4541 44.7113 56.7061 45.8422 57.4224C45.6712 57.8709 45.5664 58.3517 45.5664 58.8583C45.5664 61.0832 47.375 62.8918 49.5999 62.8918H60.8936C63.1185 62.8918 64.9271 61.0832 64.9271 58.8583C64.9271 58.3501 64.8223 57.8693 64.6512 57.4224C65.7822 56.7077 66.5405 55.4541 66.5405 54.0181C66.5405 52.0691 65.153 50.4412 63.3137 50.0669V47.5242C67.3166 44.8411 69.7673 40.3026 69.7673 35.4641ZM43.953 35.4641C43.953 29.238 49.0206 24.1703 55.2467 24.1703C61.4728 24.1703 66.5405 29.238 66.5405 35.4641C66.5405 39.4717 64.3753 43.2164 60.892 45.2348L60.0869 45.7011V49.9846H56.8601V40.0074C58.7333 39.3394 60.0869 37.5647 60.0869 35.4641C60.0869 32.7955 57.9153 30.6239 55.2467 30.6239C52.5782 30.6239 50.4066 32.7955 50.4066 35.4641C50.4066 37.5647 51.7602 39.3394 53.6333 40.0074V49.9846H50.4066V45.7011L49.6015 45.2348C46.1181 43.2164 43.953 39.4734 43.953 35.4641ZM53.6333 35.4641C53.6333 34.5735 54.3561 33.8507 55.2467 33.8507C56.1373 33.8507 56.8601 34.5735 56.8601 35.4641C56.8601 36.3547 56.1373 37.0775 55.2467 37.0775C54.3561 37.0775 53.6333 36.3547 53.6333 35.4641ZM47.9865 53.2114H62.507C62.9507 53.2114 63.3137 53.5744 63.3137 54.0181C63.3137 54.4618 62.9507 54.8248 62.507 54.8248H60.8936H49.5999H47.9865C47.5428 54.8248 47.1798 54.4618 47.1798 54.0181C47.1798 53.5744 47.5428 53.2114 47.9865 53.2114ZM60.8936 59.665H49.5999C49.1562 59.665 48.7932 59.302 48.7932 58.8583C48.7932 58.4146 49.1562 58.0516 49.5999 58.0516H60.8936C61.3373 58.0516 61.7003 58.4146 61.7003 58.8583C61.7003 59.302 61.3373 59.665 60.8936 59.665Z" fill="#333333"/>
<path d="M56.8344 66.1186H53.6076V69.3454H56.8344V66.1186Z" fill="#333333"/>
<path d="M56.8344 72.5722H53.6076V75.799H56.8344V72.5722Z" fill="#333333"/>
<path d="M56.8344 79.0258H53.6076V82.2526H56.8344V79.0258Z" fill="#333333"/>
<path d="M56.8344 85.4794H53.6076V88.7062H56.8344V85.4794Z" fill="#333333"/>
</svg>
