<svg width="100" height="100" viewBox="0 0 100 100" fill="none" xmlns="http://www.w3.org/2000/svg">
<path d="M35.9374 78.125H64.0624V84.375H35.9374V78.125Z" fill="#C4C4C4"/>
<path d="M71.8749 11H90.6249V29.75H71.8749V11Z" fill="#C4C4C4"/>
<path d="M9.37494 10.9375H28.1249V29.6875H9.37494V10.9375Z" fill="#C4C4C4"/>
<path d="M35.9374 82.8125H64.0624V85.9375H35.9374V82.8125Z" fill="black"/>
<path d="M35.9374 76.5625H64.0624V79.6875H35.9374V76.5625Z" fill="black"/>
<path d="M60.9374 70.3125H64.0624V73.4375H60.9374V70.3125Z" fill="black"/>
<path d="M54.6874 70.3125H57.8124V73.4375H54.6874V70.3125Z" fill="black"/>
<path d="M74.9999 54.6875V48.4375C74.9999 37.0687 67.364 27.4641 56.9546 24.4422C60.2968 22.1953 62.4999 18.3828 62.4999 14.0625C62.4999 7.17031 56.8921 1.5625 49.9999 1.5625C43.1077 1.5625 37.4999 7.17031 37.4999 14.0625C37.4999 18.3828 39.7031 22.1953 43.0452 24.4422C32.6359 27.4641 24.9999 37.0687 24.9999 48.4375V50C24.9999 51.7656 25.6109 53.3781 26.6031 54.6875H1.56244V98.4375H98.4374V54.6875H74.9999ZM49.9999 26.5625C51.0546 26.5625 52.0843 26.6625 53.0999 26.8078C52.9718 28.4156 51.639 29.6875 49.9999 29.6875C48.3609 29.6875 47.0281 28.4156 46.8999 26.8078C47.9156 26.6625 48.9453 26.5625 49.9999 26.5625ZM40.6249 14.0625C40.6249 8.89219 44.8296 4.6875 49.9999 4.6875C55.1702 4.6875 59.3749 8.89219 59.3749 14.0625C59.3749 19.2328 55.1702 23.4375 49.9999 23.4375C44.8296 23.4375 40.6249 19.2328 40.6249 14.0625ZM28.1249 50V48.4375C28.1249 38.5156 34.7703 30.1281 43.8406 27.4609C44.2812 30.4797 46.8609 32.8125 49.9999 32.8125C53.139 32.8125 55.7187 30.4797 56.1593 27.4609C65.2296 30.1281 71.8749 38.5156 71.8749 48.4375V54.6875H65.6249V40.625H62.4999V54.6875H56.2499V43.75C56.2499 39.4422 52.7453 35.9375 48.4374 35.9375C44.1296 35.9375 40.6249 39.4422 40.6249 43.75V46.875H34.3749V50H44.5312C45.8234 50 46.8749 51.0516 46.8749 52.3438C46.8749 53.6359 45.8234 54.6875 44.5312 54.6875H35.9374H32.8124C30.2281 54.6875 28.1249 52.5844 28.1249 50ZM32.8124 57.8125H35.9374H40.6249V64.6109L48.4374 74.3766L56.2499 64.6109V57.8125H67.1874V89.0625H32.8124V57.8125ZM44.5312 46.875H43.7499V43.75C43.7499 41.1656 45.8531 39.0625 48.4374 39.0625C51.0218 39.0625 53.1249 41.1656 53.1249 43.75V62.5H43.7499V57.8125H44.5312C47.5468 57.8125 49.9999 55.3594 49.9999 52.3438C49.9999 49.3281 47.5468 46.875 44.5312 46.875ZM51.4374 65.625L48.4374 69.3734L45.4374 65.625H51.4374ZM95.3124 95.3125H4.68744V57.8125H29.6874V92.1875H70.3124V57.8125H95.3124V95.3125Z" fill="black"/>
<path d="M15.1669 26.1045L18.7498 22.5217L22.3326 26.1045L24.5419 23.8951L20.9591 20.3123L24.5419 16.7295L22.3326 14.5201L18.7498 18.103L15.1669 14.5201L12.9576 16.7295L16.5404 20.3123L12.9576 23.8951L15.1669 26.1045Z" fill="black"/>
<path d="M96.4173 12.042L94.208 9.83264L81.2501 22.7905L77.6673 19.2076L75.4579 21.417L81.2501 27.2092L96.4173 12.042Z" fill="black"/>
<path d="M89.0624 60.9375H92.1874V64.0625H89.0624V60.9375Z" fill="black"/>
<path d="M89.0624 67.1875H92.1874V70.3125H89.0624V67.1875Z" fill="black"/>
<path d="M89.0624 73.4375H92.1874V76.5625H89.0624V73.4375Z" fill="black"/>
<path d="M7.81244 89.0625H10.9374V92.1875H7.81244V89.0625Z" fill="black"/>
<path d="M7.81244 82.8125H10.9374V85.9375H7.81244V82.8125Z" fill="black"/>
<path d="M7.81244 76.5625H10.9374V79.6875H7.81244V76.5625Z" fill="black"/>
</svg>
