<svg width="100" height="100" viewBox="0 0 100 100" fill="none" xmlns="http://www.w3.org/2000/svg">
<path d="M45.1612 16.1257L27.4194 11.2936L23.0597 14.9193C21.6904 12.8661 20.9678 10.4774 20.9678 8.01136V4.03548C20.9678 1.81133 22.7758 0.0032959 25 0.0032959C27.2241 0.0032959 29.0322 1.81133 29.0322 4.03548V5.64828C29.0322 6.09171 29.395 6.45485 29.8387 6.45485C30.2825 6.45485 30.6453 6.09205 30.6453 5.64828V4.03548C30.6453 1.81133 32.4533 0.0032959 34.6775 0.0032959C36.9016 0.0032959 38.7097 1.81133 38.7097 4.03548V5.64828C38.7097 6.09171 39.0725 6.45485 39.5162 6.45485C39.96 6.45485 40.3228 6.09205 40.3228 5.64828V4.03548C40.3228 1.81133 42.1309 0.0032959 44.355 0.0032959C46.5791 0.0032959 48.3872 1.81133 48.3872 4.03548V8.01136C48.3872 10.4774 47.6646 12.8678 46.2953 14.9193L45.1612 16.1257Z" fill="#C4C4C4"/>
<path d="M19.7355 40.3192L16.5095 38.7064H11.2903V14.5129H0V45.1579H11.2903V41.932H15.7483L18.9742 43.5448H20.9678V40.3188L19.7355 40.3192ZM8.06437 41.9323H3.22595V17.7386H8.0647V41.9323H8.06437Z" fill="#333333"/>
<path d="M35.4951 75.8096C35.2032 75.8096 34.9127 75.8046 34.6192 75.7919C23.732 75.3532 14.7145 66.1258 14.5193 55.2243C14.4176 49.6016 16.5225 44.2841 20.4434 40.2532C23.9016 36.6968 25.8062 32.2598 25.8062 27.7629L33.8706 22.584L37.0966 25.8099V41.9323H48.3869L50.2755 39.9904C54.2594 43.9516 56.4512 49.2241 56.4512 54.8421C56.4512 60.6034 54.1625 65.9745 50.006 69.9664C46.0644 73.753 40.9388 75.8096 35.4951 75.8096Z" fill="#C4C4C4"/>
<path d="M50.3548 22.5839C51.1291 21.7257 51.6128 20.5983 51.6128 19.355C51.6128 16.6874 49.442 14.5129 46.7741 14.5129H40.7709L39.6482 13.1096L27.0436 9.50488L17.1582 17.7385H9.67752V20.9644H18.3259L27.7969 13.0756L37.7725 15.9271L41.1661 20.1675C41.6145 20.7289 41.8127 21.4322 41.7224 22.1448C41.6321 22.8578 41.2643 23.4901 40.6886 23.9205C39.6482 24.7011 38.1693 24.5962 37.2468 23.6753L33.9919 20.4204L24.8001 27.7741L26.8147 30.2935L33.7517 24.7434L34.9647 25.9578C35.1423 26.1353 35.3405 26.2803 35.5357 26.4302C35.6533 27.6076 36.0824 28.2995 36.7421 29.0301C35.9678 29.8883 35.4841 31.0141 35.4841 32.2574C35.4841 33.5007 35.9695 34.6268 36.7421 35.4834C35.9678 36.3416 35.4841 37.4623 35.4841 38.706C35.4841 41.3769 37.6549 43.5447 40.3228 43.5447H46.7744C49.442 43.5447 51.6132 41.3769 51.6132 38.7093C51.6132 37.4656 51.1277 36.3432 50.3552 35.485C51.1294 34.6268 51.6132 33.5044 51.6132 32.2591C51.6132 31.0141 51.1277 29.8913 50.3552 29.0331C51.1294 28.1749 51.6132 27.0509 51.6132 25.8072C51.6128 24.5645 51.1274 23.4418 50.3548 22.5839ZM46.7741 40.3191H40.3225C39.4336 40.3191 38.7097 39.5948 38.7097 38.7063C38.7097 37.8174 39.434 37.0935 40.3225 37.0935H46.7741C47.6629 37.0935 48.3869 37.8178 48.3869 38.7063C48.3872 39.5952 47.6629 40.3191 46.7741 40.3191ZM46.7741 33.8676H40.3225C39.4336 33.8676 38.7097 33.1433 38.7097 32.2547C38.7097 31.3659 39.434 30.6419 40.3225 30.6419H46.7741C47.6629 30.6419 48.3869 31.3662 48.3869 32.2547C48.3872 33.1436 47.6629 33.8676 46.7741 33.8676ZM46.7741 27.416H40.7983C41.4419 27.2241 42.0629 26.9239 42.624 26.5032C43.4369 25.8935 44.0369 25.0919 44.437 24.1904H46.7741C47.6629 24.1904 48.3869 24.9147 48.3869 25.8032C48.3869 26.6917 47.6629 27.416 46.7741 27.416ZM46.7741 20.9644H44.8821C44.7338 19.9483 44.345 18.9805 43.6837 18.1533L43.3516 17.7388H46.7741C47.6629 17.7388 48.3869 18.4631 48.3869 19.3516C48.3872 20.2402 47.6629 20.9644 46.7741 20.9644Z" fill="#333333"/>
<path d="M88.7097 75.8032V80.642H77.9081L73.4758 77.6872L59.8824 72.8661C58.5887 72.4113 57.2001 72.5033 55.9775 73.1243C54.7531 73.7453 53.8613 74.8097 53.4628 76.1227C52.7742 78.3952 53.7966 80.8548 55.8935 81.9679L59.3853 83.8226L54.308 83.8386L52.2208 78.6194C51.5338 76.9096 49.8997 75.8032 48.0547 75.8032C46.6145 75.8032 45.2532 76.5032 44.4126 77.6709C43.5724 78.8419 43.3449 80.3548 43.8046 81.7194L44.2934 83.1676L40.7546 81.2336C39.6288 80.616 38.2836 80.4967 37.0659 80.9078C35.8482 81.3143 34.8464 82.2191 34.3173 83.3885C33.2819 85.6756 34.2351 88.3385 36.4869 89.4499L44.4483 93.3788L60.9741 96.74L82.4177 96.7707L88.7097 95.5127V99.9966H100V75.8032H88.7097ZM47.0322 79.5532C47.5743 78.7983 48.8806 78.9582 49.2241 79.8194L50.8369 83.8499L47.9304 83.8596L46.8627 80.6886C46.7321 80.2998 46.7934 79.887 47.0322 79.5532ZM82.0982 93.5451H61.4499L45.6853 90.3918L37.9144 86.5578C37.2321 86.2207 36.9419 85.4127 37.2564 84.7175C37.4194 84.3576 37.7145 84.0901 38.0903 83.9659C38.4628 83.8369 38.8629 83.8739 39.2097 84.0658L44.7501 87.0932H60.0583L66.4229 83.9109L57.4084 79.1191C56.6698 78.7256 56.3083 77.8594 56.5502 77.0579C56.6904 76.5951 57.0049 76.2177 57.4374 75.9998C57.8681 75.7789 58.3582 75.7499 58.8146 75.9078L71.8567 80.4837L76.931 83.8676H88.71V92.2225L82.0982 93.5451ZM96.774 96.7707H91.9353V79.0288H96.774V96.7707Z" fill="#333333"/>
</svg>
