<svg width="100" height="100" viewBox="0 0 100 100" fill="none" xmlns="http://www.w3.org/2000/svg">
<g clip-path="url(#clip0)">
<path d="M50 100C40.0517 100 32.2581 95.7481 32.2581 90.3226C32.2581 85.8919 37.4386 82.1455 45.1503 80.9988L45.6244 84.1908C39.8437 85.0484 35.4839 87.6859 35.4839 90.3226C35.4839 93.3744 41.4448 96.7742 50 96.7742C58.5552 96.7742 64.5161 93.3744 64.5161 90.3226C64.5161 87.6859 60.1562 85.0484 54.374 84.1868L54.8497 80.9949C62.5614 82.1471 67.7419 85.8934 67.7419 90.3226C67.7419 95.7481 59.9483 100 50 100Z" fill="black"/>
<path d="M50 91.9355C47.3294 91.9355 45.0967 90.0194 44.6903 87.3803C42.9514 76.0884 37.7646 65.8518 29.6867 57.7755L27.1902 55.2789C21.0969 49.1857 17.7419 41.0841 17.7419 32.4676V32.2581C17.7419 14.4712 32.2132 0 50 0C67.7868 0 82.2581 14.4712 82.2581 32.2581V32.4676C82.2581 41.0841 78.9031 49.1857 72.8098 55.2789L70.3133 57.7755C62.2354 65.8534 57.0486 76.0884 55.3097 87.3803C54.9033 90.0194 52.6706 91.9355 50 91.9355Z" fill="#C4C4C4"/>
<path d="M50 54.8387C37.548 54.8387 27.4194 44.71 27.4194 32.2581C27.4194 19.8061 37.548 9.67743 50 9.67743C62.452 9.67743 72.5807 19.8061 72.5807 32.2581C72.5807 44.71 62.452 54.8387 50 54.8387ZM50 12.9032C39.3271 12.9032 30.6452 21.5852 30.6452 32.2581C30.6452 42.931 39.3271 51.6129 50 51.6129C60.6729 51.6129 69.3549 42.931 69.3549 32.2581C69.3549 21.5852 60.6729 12.9032 50 12.9032Z" fill="black"/>
<path d="M41.9355 58.0645H45.1613V61.2903H41.9355V58.0645Z" fill="black"/>
<path d="M48.3871 58.0645H51.6129V61.2903H48.3871V58.0645Z" fill="black"/>
<path d="M54.8387 58.0645H58.0645V61.2903H54.8387V58.0645Z" fill="black"/>
</g>
<defs>
<clipPath id="clip0">
<rect width="100" height="100" fill="white"/>
</clipPath>
</defs>
</svg>
