<svg width="213" height="84" viewBox="0 0 213 84" fill="none" xmlns="http://www.w3.org/2000/svg">
<path d="M36.0674 53.1773C36.0674 53.4031 36.0674 53.6007 36.0392 53.77C36.0111 53.9394 35.983 54.0805 35.8986 54.1934C35.8423 54.3063 35.7579 54.391 35.6735 54.4475C35.5891 54.5039 35.5047 54.5321 35.3922 54.5321H21.7473C21.466 54.5321 21.1847 54.4475 20.9315 54.2499C20.6783 54.0523 20.5376 53.7136 20.5376 53.2055V31.1894C20.5376 30.6813 20.6783 30.3426 20.9315 30.1451C21.1847 29.9475 21.466 29.8628 21.7473 29.8628H35.5328C35.6454 29.8628 35.7298 29.891 35.8142 29.9475C35.8986 30.0039 35.9548 30.0886 36.0111 30.2015C36.0674 30.3144 36.0955 30.4555 36.1236 30.6249C36.1518 30.7942 36.1799 31.0201 36.1799 31.2741C36.1799 31.4999 36.1518 31.6975 36.1236 31.8668C36.0955 32.0362 36.0392 32.1773 36.0111 32.2902C35.9548 32.4031 35.8986 32.4878 35.8142 32.516C35.7298 32.5725 35.6454 32.6007 35.5328 32.6007H23.8011V40.3628H32.0724C32.1849 40.3628 32.2693 40.391 32.3537 40.4475C32.4381 40.5039 32.4944 40.5886 32.5507 40.6733C32.6069 40.7862 32.6351 40.9273 32.6632 41.0967C32.6913 41.266 32.6913 41.4918 32.6913 41.7176C32.6913 41.9434 32.6913 42.141 32.6632 42.3104C32.6351 42.4797 32.6069 42.6209 32.5507 42.7055C32.4944 42.8184 32.41 42.8749 32.3537 42.9313C32.2693 42.9878 32.1849 42.9878 32.0724 42.9878H23.8011V51.8225H35.3922C35.5047 51.8225 35.5891 51.8507 35.6735 51.9071C35.7579 51.9636 35.8423 52.0483 35.8986 52.1329C35.9548 52.2459 36.0111 52.387 36.0392 52.5563C36.0674 52.7257 36.0674 52.9233 36.0674 53.1773Z" fill="white"/>
<path d="M163.063 53.1773C163.063 53.4031 163.063 53.6007 163.035 53.77C163.006 53.9394 162.978 54.0805 162.894 54.1934C162.838 54.3063 162.753 54.391 162.669 54.4475C162.584 54.5039 162.5 54.5321 162.388 54.5321H148.743C148.461 54.5321 148.18 54.4475 147.927 54.2499C147.674 54.0523 147.533 53.7136 147.533 53.2055V31.1894C147.533 30.6813 147.674 30.3426 147.927 30.1451C148.18 29.9475 148.461 29.8628 148.743 29.8628H162.528C162.641 29.8628 162.725 29.891 162.81 29.9475C162.894 30.0039 162.95 30.0886 163.006 30.2015C163.063 30.3144 163.091 30.4555 163.119 30.6249C163.147 30.7942 163.175 31.0201 163.175 31.2741C163.175 31.4999 163.147 31.6975 163.119 31.8668C163.091 32.0362 163.035 32.1773 163.006 32.2902C162.95 32.4031 162.894 32.4878 162.81 32.516C162.725 32.5725 162.641 32.6007 162.528 32.6007H150.796V40.3628H159.04C159.152 40.3628 159.237 40.391 159.321 40.4475C159.405 40.5039 159.462 40.5886 159.518 40.6733C159.574 40.7862 159.602 40.9273 159.63 41.0967C159.659 41.266 159.659 41.4918 159.659 41.7176C159.659 41.9434 159.659 42.141 159.63 42.3104C159.602 42.4797 159.574 42.6209 159.518 42.7055C159.462 42.8184 159.377 42.8749 159.321 42.9313C159.237 42.9878 159.152 42.9878 159.04 42.9878H150.796V51.8225H162.388C162.5 51.8225 162.584 51.8507 162.669 51.9071C162.753 51.9636 162.838 52.0483 162.894 52.1329C162.95 52.2459 163.006 52.387 163.035 52.5563C163.035 52.7257 163.063 52.9233 163.063 53.1773Z" fill="white"/>
<path d="M80.7155 53.9394C80.7155 54.0523 80.6874 54.137 80.6311 54.1934C80.5748 54.2781 80.4904 54.3345 80.3779 54.3628C80.2372 54.4192 80.0966 54.4474 79.8715 54.4757C79.6746 54.5039 79.3932 54.5321 79.0838 54.5321C78.7743 54.5321 78.5211 54.5039 78.296 54.4757C78.0709 54.4474 77.9021 54.4192 77.7896 54.3628C77.6771 54.3063 77.5645 54.2499 77.5364 54.1934C77.4801 54.1087 77.452 54.0241 77.452 53.9394V30.2297C77.452 30.1168 77.4801 30.0321 77.5364 29.9757C77.5927 29.891 77.6771 29.8345 77.8177 29.8063C77.9584 29.7499 78.1272 29.7216 78.3241 29.6934C78.5211 29.6652 78.7743 29.637 79.0838 29.637C79.3932 29.637 79.6746 29.6652 79.8715 29.6934C80.0684 29.7216 80.2372 29.7499 80.3779 29.8063C80.5186 29.8628 80.603 29.9192 80.6311 29.9757C80.6874 30.0603 80.7155 30.145 80.7155 30.2297V53.9394Z" fill="white"/>
<path d="M176.792 53.9394C176.792 54.0523 176.764 54.137 176.708 54.1934C176.651 54.2781 176.567 54.3345 176.454 54.3628C176.342 54.391 176.173 54.4474 175.948 54.4757C175.751 54.5039 175.47 54.5321 175.16 54.5321C174.851 54.5321 174.598 54.5039 174.372 54.4757C174.147 54.4474 173.979 54.4192 173.866 54.3628C173.754 54.3063 173.641 54.2499 173.613 54.1934C173.557 54.1087 173.528 54.0241 173.528 53.9394V30.2297C173.528 30.1168 173.557 30.0321 173.613 29.9757C173.669 29.891 173.754 29.8345 173.894 29.8063C174.035 29.7499 174.204 29.7216 174.401 29.6934C174.598 29.6652 174.851 29.637 175.16 29.637C175.47 29.637 175.751 29.6652 175.948 29.6934C176.145 29.7216 176.314 29.7499 176.454 29.8063C176.595 29.8628 176.679 29.9192 176.708 29.9757C176.764 30.0603 176.792 30.145 176.792 30.2297V53.9394Z" fill="white"/>
<path d="M175.723 44.9071C175.639 44.9636 175.554 44.9918 175.47 45.02C175.385 45.02 175.273 44.9918 175.16 44.9354C175.048 44.8507 174.907 44.766 174.766 44.5967C174.626 44.4555 174.429 44.2579 174.232 44.0039C174.035 43.7781 173.894 43.5523 173.782 43.3547C173.669 43.1571 173.585 43.016 173.557 42.8749C173.5 42.7337 173.5 42.6491 173.528 42.5644C173.557 42.4797 173.613 42.395 173.697 42.3386L190.015 29.2136C190.099 29.1571 190.184 29.1289 190.268 29.1289C190.352 29.1289 190.465 29.1571 190.577 29.2418C190.69 29.3265 190.831 29.4394 190.999 29.5805C191.168 29.7217 191.309 29.9192 191.506 30.145C191.703 30.3991 191.843 30.6249 191.956 30.7942C192.069 30.9636 192.125 31.1329 192.181 31.2741C192.237 31.4152 192.237 31.4999 192.209 31.5846C192.181 31.6692 192.125 31.7539 192.04 31.8104L175.723 44.9071Z" fill="white"/>
<path d="M178.677 39.149C178.621 39.0643 178.593 38.9796 178.593 38.895C178.593 38.8103 178.621 38.6974 178.705 38.5845C178.789 38.4716 178.902 38.3587 179.043 38.1893C179.183 38.0482 179.408 37.8788 179.662 37.6812C179.887 37.5119 180.112 37.3708 180.309 37.2861C180.506 37.2014 180.646 37.1167 180.787 37.0885C180.928 37.0603 181.04 37.0321 181.125 37.0603C181.209 37.0885 181.293 37.145 181.35 37.2296L192.125 52.7538C192.181 52.8385 192.209 52.9232 192.209 53.0079C192.209 53.0925 192.181 53.2054 192.097 53.3183C192.012 53.4312 191.9 53.5724 191.759 53.7135C191.59 53.8546 191.393 54.024 191.14 54.2216C190.887 54.4191 190.662 54.5603 190.465 54.645C190.268 54.7296 190.127 54.8143 189.987 54.8425C189.846 54.8708 189.762 54.8708 189.677 54.8425C189.593 54.8143 189.508 54.7579 189.452 54.6732L178.677 39.149Z" fill="white"/>
<path d="M130.259 53.9394C130.259 54.0523 130.231 54.137 130.174 54.1934C130.118 54.2781 130.034 54.3346 129.921 54.3628C129.809 54.391 129.64 54.4475 129.415 54.4757C129.218 54.5039 128.937 54.5321 128.627 54.5321C128.318 54.5321 128.064 54.5039 127.839 54.4757C127.614 54.4475 127.446 54.4192 127.333 54.3628C127.22 54.3063 127.108 54.2499 127.08 54.1934C127.024 54.1088 126.995 54.0241 126.995 53.9394V25.2055C126.995 25.0926 127.024 25.008 127.08 24.9515C127.136 24.8668 127.22 24.8104 127.361 24.7821C127.502 24.7257 127.671 24.6975 127.868 24.6692C128.064 24.641 128.318 24.6128 128.627 24.6128C128.937 24.6128 129.218 24.641 129.415 24.6692C129.612 24.6975 129.781 24.7257 129.921 24.7821C130.062 24.8386 130.146 24.8951 130.174 24.9515C130.231 25.0362 130.259 25.1209 130.259 25.2055V53.9394Z" fill="#CE152F"/>
<path d="M191.844 23.54C191.956 23.54 192.04 23.5683 192.097 23.6247C192.181 23.6812 192.237 23.7658 192.266 23.8787C192.322 24.0199 192.35 24.161 192.378 24.3868C192.406 24.5844 192.434 24.8667 192.434 25.1771C192.434 25.4876 192.406 25.7417 192.378 25.9675C192.35 26.1933 192.322 26.3626 192.266 26.4755C192.209 26.6167 192.153 26.7013 192.097 26.7296C192.012 26.786 191.928 26.8142 191.844 26.8142H86.3985C86.286 26.8142 86.2016 26.786 86.1453 26.7296C86.0609 26.6731 86.0046 26.5884 85.9765 26.4473C85.9202 26.3062 85.8921 26.1368 85.864 25.9392C85.8358 25.7417 85.8077 25.4876 85.8077 25.1771C85.8077 24.8667 85.8358 24.5844 85.864 24.3868C85.8921 24.1892 85.9202 24.0199 85.9765 23.8787C86.0328 23.7376 86.089 23.6529 86.1453 23.6247C86.2297 23.5683 86.3141 23.54 86.3985 23.54H191.844Z" fill="#CE152F"/>
<path d="M42.51 57.7217C42.6225 57.7217 42.7069 57.7499 42.7632 57.8064C42.8476 57.8628 42.9039 57.9475 42.932 58.0604C42.9883 58.2015 43.0164 58.3426 43.0446 58.5685C43.0727 58.766 43.1008 59.0483 43.1008 59.3588C43.1008 59.6693 43.0727 59.9233 43.0446 60.1491C43.0164 60.3749 42.9883 60.5443 42.932 60.6572C42.8758 60.7983 42.8195 60.883 42.7632 60.9112C42.6788 60.9676 42.5944 60.9959 42.51 60.9959H21.241C21.1284 60.9959 21.044 60.9676 20.9877 60.9112C20.9033 60.8547 20.8471 60.7701 20.8189 60.6289C20.7627 60.4878 20.7345 60.3185 20.7064 60.1209C20.6783 59.9233 20.6501 59.6693 20.6501 59.3588C20.6501 59.0483 20.6783 58.766 20.7064 58.5685C20.7345 58.3709 20.7627 58.2015 20.8189 58.0604C20.8752 57.9193 20.9315 57.8346 20.9877 57.8064C21.0722 57.7499 21.1566 57.7217 21.241 57.7217H42.51Z" fill="#CE152F"/>
<path d="M67.6614 52.4998C67.7177 52.5845 67.774 52.6692 67.774 52.7539C67.774 52.8386 67.7458 52.9515 67.6896 53.0644C67.6333 53.1773 67.5208 53.3184 67.3801 53.4877C67.2394 53.6571 67.0425 53.8265 66.8174 54.024C66.5924 54.2216 66.3673 54.3627 66.1985 54.4757C66.0016 54.5886 65.8609 54.6732 65.7202 54.7297C65.5796 54.7861 65.4952 54.7861 65.4107 54.7579C65.3263 54.7297 65.2419 54.6732 65.1857 54.5886L45.9422 31.4998C45.886 31.4152 45.8297 31.3305 45.8297 31.2458C45.8297 31.1611 45.8578 31.0482 45.9422 30.9353C46.0267 30.8224 46.111 30.6813 46.2517 30.5119C46.3924 30.3426 46.5612 30.1732 46.7863 30.0039C47.0395 29.8063 47.2364 29.6369 47.4333 29.524C47.6021 29.4111 47.7709 29.3265 47.8835 29.2982C47.996 29.2418 48.1085 29.2418 48.1929 29.27C48.2773 29.2982 48.3617 29.3547 48.418 29.4394L67.6614 52.4998Z" fill="white"/>
<path d="M70.2779 23.5966C70.3342 23.5119 70.4186 23.4555 70.503 23.4272C70.5874 23.399 70.6999 23.399 70.8124 23.4555C70.925 23.5119 71.0938 23.5684 71.2626 23.6813C71.4314 23.7942 71.6564 23.9353 71.9096 24.1611C72.1347 24.3587 72.3035 24.528 72.4442 24.6692C72.5848 24.8385 72.6974 24.9797 72.7536 25.0926C72.8381 25.2055 72.8662 25.3184 72.8662 25.403C72.8662 25.4877 72.8381 25.5724 72.7536 25.6571L42.9038 60.8264C42.8476 60.9111 42.7632 60.9676 42.6788 60.9958C42.5944 61.024 42.4818 61.024 42.3693 60.9676C42.2568 60.9111 42.0879 60.8264 41.891 60.7135C41.6941 60.6006 41.4971 60.4313 41.2721 60.2619C41.0189 60.0643 40.8501 59.8667 40.7094 59.7256C40.5687 59.5563 40.4562 59.4434 40.3999 59.3022C40.3437 59.1893 40.2874 59.0764 40.3155 58.9917C40.3155 58.9071 40.3718 58.8224 40.4281 58.7377L70.2779 23.5966Z" fill="#CE152F"/>
<path d="M80.7155 26.7579C80.7155 26.8708 80.6874 26.9555 80.6311 27.0119C80.5748 27.0966 80.4904 27.153 80.3779 27.1813C80.2372 27.2377 80.0966 27.2659 79.8715 27.2942C79.6746 27.3224 79.3932 27.3506 79.0838 27.3506C78.7743 27.3506 78.5211 27.3224 78.296 27.2942C78.0709 27.2659 77.9021 27.2377 77.7896 27.1813C77.6771 27.1248 77.5645 27.0684 77.5364 27.0119C77.4801 26.9272 77.452 26.8426 77.452 26.7579V23.653C77.452 23.5401 77.4801 23.4555 77.5364 23.399C77.5927 23.3143 77.6771 23.2579 77.8177 23.2297C77.9584 23.1732 78.1272 23.145 78.3241 23.1168C78.5211 23.0885 78.7743 23.0603 79.0838 23.0603C79.3932 23.0603 79.6746 23.0885 79.8715 23.1168C80.0684 23.145 80.2372 23.1732 80.3779 23.2297C80.5186 23.2861 80.603 23.3426 80.6311 23.399C80.6874 23.4837 80.7155 23.5684 80.7155 23.653V26.7579Z" fill="#CE152F"/>
<path d="M109.44 47.6169C109.44 48.7741 109.187 49.8185 108.652 50.7217C108.118 51.6249 107.386 52.387 106.458 53.008C105.529 53.629 104.432 54.1088 103.166 54.4193C101.9 54.7298 100.55 54.8991 99.0868 54.8991C98.074 54.8991 97.1174 54.8427 96.2453 54.7015C95.3731 54.5604 94.6135 54.3911 93.9102 54.1935C93.235 53.9959 92.6442 53.7701 92.194 53.5725C91.7439 53.3467 91.4063 53.1774 91.2375 53.008C91.0687 52.8669 90.928 52.6693 90.8436 52.4153C90.7592 52.1895 90.7029 51.879 90.7029 51.4838C90.7029 51.2015 90.7311 50.9757 90.7592 50.7782C90.7873 50.5806 90.8436 50.4395 90.8999 50.3265C90.9561 50.2136 91.0405 50.129 91.1249 50.1007C91.2093 50.0443 91.3219 50.0443 91.4626 50.0443C91.6876 50.0443 91.9971 50.1572 92.391 50.3548C92.7848 50.5806 93.2912 50.8064 93.9383 51.0604C94.5573 51.3145 95.3169 51.5403 96.2171 51.7661C97.0893 51.9919 98.1302 52.1048 99.2837 52.1048C100.156 52.1048 100.972 52.0201 101.703 51.8225C102.435 51.6249 103.054 51.3709 103.588 51.004C104.123 50.6653 104.517 50.2136 104.798 49.7056C105.079 49.1975 105.22 48.6048 105.22 47.9556C105.22 47.2499 105.023 46.6572 104.629 46.1491C104.235 45.6411 103.729 45.2177 103.082 44.8507C102.435 44.4838 101.703 44.1451 100.887 43.8064C100.071 43.4959 99.2274 43.1854 98.3553 42.8467C97.4832 42.508 96.6673 42.1693 95.8514 41.7741C95.0355 41.379 94.3041 40.9274 93.657 40.3911C93.0099 39.8548 92.5035 39.2338 92.0815 38.4999C91.6595 37.7661 91.4907 36.9193 91.4907 35.9032C91.4907 34.8588 91.7158 33.9556 92.194 33.137C92.6442 32.3185 93.2912 31.6411 94.1071 31.1048C94.923 30.5685 95.9077 30.1451 97.033 29.8628C98.1584 29.5806 99.3962 29.4395 100.719 29.4395C101.394 29.4395 102.069 29.4959 102.744 29.5806C103.419 29.6653 104.066 29.8064 104.657 29.9757C105.248 30.1451 105.811 30.3145 106.261 30.512C106.739 30.7096 107.049 30.879 107.189 30.9919C107.33 31.1048 107.442 31.2177 107.471 31.2741C107.527 31.3306 107.555 31.4435 107.583 31.5282C107.611 31.6411 107.639 31.754 107.668 31.9233C107.696 32.0645 107.696 32.262 107.696 32.5161C107.696 32.7419 107.696 32.9395 107.668 33.137C107.639 33.3064 107.611 33.4757 107.555 33.5886C107.499 33.7015 107.442 33.7862 107.358 33.8427C107.274 33.8991 107.161 33.9274 107.077 33.9274C106.908 33.9274 106.627 33.8427 106.261 33.6733C105.895 33.504 105.445 33.3064 104.91 33.0806C104.376 32.8548 103.757 32.6572 103.025 32.4596C102.294 32.262 101.478 32.1774 100.578 32.1774C99.7339 32.1774 99.0024 32.262 98.3834 32.4596C97.7645 32.6572 97.23 32.883 96.8361 33.1935C96.4422 33.504 96.1327 33.8709 95.9077 34.2943C95.7107 34.7177 95.5982 35.1693 95.5982 35.6209C95.5982 36.2983 95.7951 36.8911 96.189 37.3991C96.5829 37.9072 97.0893 38.3306 97.7645 38.7257C98.4116 39.1209 99.143 39.4596 99.9871 39.7701C100.831 40.0806 101.675 40.4193 102.519 40.7298C103.391 41.0685 104.235 41.4072 105.051 41.8024C105.895 42.1975 106.627 42.6491 107.274 43.1854C107.921 43.7217 108.455 44.3427 108.849 45.0483C109.243 45.7822 109.44 46.629 109.44 47.6169Z" fill="white"/>
<path d="M201.69 13.9435V70.0564H11.3098V13.9435H201.69ZM203.547 12.0806H9.45294V71.9193H203.547V12.0806Z" fill="white"/>
</svg>
