<svg width="26" height="26" viewBox="0 0 26 26" fill="none" xmlns="http://www.w3.org/2000/svg">
<path d="M23.8333 3.25H2.16668C0.971699 3.25 0 4.2217 0 5.41668V20.5834C0 21.7783 0.971699 22.75 2.16668 22.75H23.8334C25.0283 22.75 26 21.7783 26 20.5833V5.41668C26 4.2217 25.0283 3.25 23.8333 3.25ZM2.16668 4.33332H23.8334C23.9132 4.33332 23.9835 4.36241 24.0584 4.37887C22.1826 6.09563 15.9627 11.7858 13.7861 13.7469C13.6158 13.9003 13.3413 14.0833 13.0001 14.0833C12.6589 14.0833 12.3843 13.9003 12.2134 13.7464C10.037 11.7856 3.81677 6.09512 1.94127 4.37897C2.01632 4.36252 2.0868 4.33332 2.16668 4.33332ZM1.08332 20.5833V5.41668C1.08332 5.31055 1.11531 5.21427 1.14395 5.11728C2.57964 6.43129 6.91961 10.4016 9.7337 12.9606C6.92875 15.37 2.58766 19.4857 1.14055 20.8657C1.115 20.7735 1.08332 20.6835 1.08332 20.5833ZM23.8333 21.6667H2.16668C2.08015 21.6667 2.00322 21.6365 1.92243 21.6172C3.41778 20.1917 7.78649 16.0523 10.5421 13.6949C10.9014 14.0208 11.2295 14.3179 11.4882 14.551C11.9347 14.9541 12.4573 15.1667 13 15.1667C13.5427 15.1667 14.0653 14.954 14.5113 14.5515C14.77 14.3183 15.0984 14.0209 15.4579 13.6949C18.2137 16.0521 22.5818 20.1911 24.0776 21.6172C23.9968 21.6365 23.9199 21.6667 23.8333 21.6667ZM24.9167 20.5833C24.9167 20.6834 24.885 20.7735 24.8595 20.8657C23.4118 19.485 19.0713 15.3698 16.2664 12.9606C19.0805 10.4016 23.4199 6.4317 24.8561 5.11718C24.8847 5.21417 24.9167 5.3105 24.9167 5.41663V20.5833V20.5833Z" fill="white"/>
</svg>
