<svg width="100" height="100" viewBox="0 0 100 100" fill="none" xmlns="http://www.w3.org/2000/svg">
<g clip-path="url(#clip0)">
<path d="M50.0957 100C24.25 100 3.22174 78.9712 3.22174 53.1263C3.22174 27.8204 23.3787 7.13465 48.4794 6.27912V0L67.5567 12.7177L48.4794 25.4345V19.2201C30.5102 20.067 16.1525 34.9519 16.1525 53.1263C16.1525 71.8413 31.3799 87.0695 50.0957 87.0695C68.8115 87.0695 84.039 71.8413 84.039 53.1263V51.5099H96.9697V53.1263C96.9697 78.9712 75.9407 100 50.0957 100Z" fill="#C4C4C4"/>
<path d="M63.0265 28.8811H37.165C35.3821 28.8811 33.9323 30.3309 33.9323 32.1138V35.3465C33.9323 37.1294 35.3821 38.5792 37.165 38.5792V42.287C37.165 47.2583 40.0741 51.8477 44.5775 53.9763C44.9894 54.172 45.2467 54.5564 45.2467 54.9786C45.2467 55.4032 44.9894 55.7868 44.5775 55.9817C40.0741 58.111 37.165 62.6996 37.165 67.6734V70.9061C35.3821 70.9061 33.9323 72.3559 33.9323 74.1387V77.3714C33.9323 79.1543 35.3821 80.6041 37.165 80.6041H63.0265C64.8094 80.6041 66.2592 79.1543 66.2592 77.3714V74.1387C66.2592 72.3559 64.8094 70.9061 63.0265 70.9061V67.6734C63.0265 62.6996 60.1166 58.111 55.6141 55.9841C55.2013 55.7868 54.9448 55.4032 54.9448 54.9786C54.9448 54.5548 55.2013 54.172 55.6156 53.9763C60.1166 51.8477 63.0265 47.2583 63.0265 42.287V38.5792C64.8094 38.5792 66.2592 37.1294 66.2592 35.3465V32.1138C66.2592 30.3309 64.8094 28.8811 63.0265 28.8811ZM63.0297 77.3714H37.165V74.1387H63.0265L63.0297 77.3714ZM59.7938 42.287C59.7938 46.0161 57.61 49.4571 54.2353 51.0537C52.701 51.7767 51.7121 53.3165 51.7121 54.9786C51.7121 56.6399 52.701 58.1821 54.2353 58.9058C57.61 60.5016 59.7938 63.9427 59.7938 67.6734V70.9061H40.3977V67.6734C40.3977 63.9427 42.5815 60.5016 45.9562 58.9058C47.4897 58.1837 48.4794 56.6415 48.4794 54.9786C48.4794 53.3149 47.4897 51.7767 45.9578 51.0522C42.5799 49.4556 40.3977 46.0137 40.3977 42.2854V38.5792H59.7938V42.287ZM37.165 35.3465V32.1138H63.0265L63.0297 35.3465H37.165Z" fill="black"/>
<path d="M82.4605 42.7803L85.5827 41.9437L86.4193 45.0659L83.2971 45.9025L82.4605 42.7803Z" fill="black"/>
<path d="M78.6856 34.757L81.485 33.1406L83.1013 35.9408L80.3012 37.5564L78.6856 34.757Z" fill="black"/>
<path d="M72.9542 27.9806L75.2398 25.6949L77.5254 27.9806L75.2398 30.2662L72.9542 27.9806Z" fill="black"/>
<path d="M65.6665 22.9193L67.282 20.1199L70.0822 21.7354L68.4659 24.5356L65.6665 22.9193Z" fill="black"/>
<path d="M92.5816 43.0257L95.7504 42.3959L96.3802 45.5646L93.2114 46.1945L92.5816 43.0257Z" fill="black"/>
<path d="M89.794 34.9361L92.7821 33.6986L94.0188 36.6851L91.0308 37.9226L89.794 34.9361Z" fill="black"/>
<path d="M85.4801 27.5363L88.1674 25.74L89.9629 28.4265L87.2748 30.2228L85.4801 27.5363Z" fill="black"/>
<path d="M79.8111 21.1245L82.0967 18.8381L84.3823 21.1245L82.0967 23.4101L79.8111 21.1245Z" fill="black"/>
<path d="M72.996 15.9409L74.7931 13.2535L77.4789 15.0498L75.6826 17.7372L72.996 15.9409Z" fill="black"/>
</g>
<defs>
<clipPath id="clip0">
<rect width="100" height="100" fill="white" transform="translate(0.000244141)"/>
</clipPath>
</defs>
</svg>
