<svg width="100" height="100" viewBox="0 0 100 100" fill="none" xmlns="http://www.w3.org/2000/svg">
<path d="M75 42.1875C84.4924 42.1875 92.1875 34.4924 92.1875 25C92.1875 15.5076 84.4924 7.8125 75 7.8125C65.5076 7.8125 57.8125 15.5076 57.8125 25C57.8125 34.4924 65.5076 42.1875 75 42.1875Z" fill="#C4C4C4"/>
<path d="M48.4375 39.0625H46.875V60.9375H44.3875C43.7563 59.8703 42.8234 58.9547 41.6281 58.3562L18.9766 47.0312C21.6484 45.3781 23.4375 42.4297 23.4375 39.0625C23.4375 33.8922 19.2328 29.6875 14.0625 29.6875C8.89219 29.6875 4.6875 33.8922 4.6875 39.0625C4.6875 41.9531 6.00313 44.5391 8.06563 46.2609C4.24063 47.9656 1.5625 51.7984 1.5625 56.25V68.75C1.5625 71.8094 2.82813 74.575 4.86094 76.5625H1.5625V98.4375H25C28.4469 98.4375 31.25 95.6344 31.25 92.1875V75C31.25 73.2344 30.6391 71.6219 29.6469 70.3125H48.4375C52.7453 70.3125 56.25 66.8078 56.25 62.5V46.875C56.25 42.5672 52.7453 39.0625 48.4375 39.0625ZM14.0625 32.8125C17.5094 32.8125 20.3125 35.6156 20.3125 39.0625C20.3125 42.5094 17.5094 45.3125 14.0625 45.3125C10.6156 45.3125 7.8125 42.5094 7.8125 39.0625C7.8125 35.6156 10.6156 32.8125 14.0625 32.8125ZM4.6875 79.6875H12.5H15.625H18.75V92.1875C18.75 93.3312 19.0812 94.3891 19.6187 95.3125H4.6875V79.6875ZM28.125 75V92.1875C28.125 93.9109 26.7234 95.3125 25 95.3125C23.2766 95.3125 21.875 93.9109 21.875 92.1875V79.6875C21.875 77.9641 20.4734 76.5625 18.75 76.5625H15.625H12.5C8.19219 76.5625 4.6875 73.0578 4.6875 68.75V56.25C4.6875 51.9422 8.19219 48.4375 12.5 48.4375H14.0625C14.5437 48.4375 15.025 48.55 15.4531 48.7641L40.2297 61.1516C41.7922 61.9328 42.5672 63.7719 41.9547 65.2469C41.4594 66.4437 40.35 67.1875 39.0609 67.1875C38.5812 67.1875 38.1 67.075 37.6719 66.8609L12.6641 54.3578L11.2656 57.1531L18.75 60.8953V70.3125H20.3125H23.4375C26.0219 70.3125 28.125 72.4156 28.125 75ZM31.3359 67.1875H23.4375H21.875V62.4578L31.3359 67.1875ZM53.125 62.5C53.125 65.0844 51.0219 67.1875 48.4375 67.1875H44.4672C44.6047 66.9484 44.7344 66.7047 44.8422 66.4437C45.1625 65.6703 45.3016 64.8625 45.2875 64.0625H46.875C48.5984 64.0625 50 62.6609 50 60.9375V42.4547C51.8187 43.1 53.125 44.8375 53.125 46.875V62.5Z" fill="black"/>
<path d="M75 48.4375C87.9234 48.4375 98.4375 37.9234 98.4375 25C98.4375 12.0766 87.9234 1.5625 75 1.5625C62.0766 1.5625 51.5625 12.0766 51.5625 25C51.5625 37.9234 62.0766 48.4375 75 48.4375ZM75 5.30156C76.0063 6.35625 77.6156 8.25625 79.1203 10.9375H70.8781C72.3844 8.25625 73.9937 6.35625 75 5.30156ZM80.6344 14.0625C81.7266 16.6984 82.5531 19.8391 82.7484 23.4375H67.2516C67.4453 19.8391 68.2734 16.6984 69.3656 14.0625H80.6344ZM95.2328 23.4375H85.8734C85.7047 19.8937 84.9937 16.7625 84.0094 14.0625H92.0891C93.8531 16.8094 94.9703 20.0031 95.2328 23.4375ZM75 44.6984C73.9937 43.6437 72.3859 41.7438 70.8797 39.0625H79.1219C77.6141 41.7453 76.0063 43.6437 75 44.6984ZM69.3656 35.9375C68.2734 33.3016 67.4469 30.1609 67.2516 26.5625H82.7484C82.5547 30.1609 81.7266 33.3016 80.6344 35.9375H69.3656ZM85.875 26.5625H95.2344C94.9703 29.9969 93.8547 33.1906 92.0906 35.9375H84.0109C84.9953 33.2375 85.7062 30.1063 85.875 26.5625ZM64.125 23.4375H54.7656C55.0297 20.0031 56.1453 16.8094 57.9094 14.0625H65.9891C65.0047 16.7625 64.2938 19.8937 64.125 23.4375ZM64.125 26.5625C64.2938 30.1063 65.0047 33.2375 65.9891 35.9375H57.9094C56.1453 33.1906 55.0281 29.9969 54.7656 26.5625H64.125ZM60.3766 39.0625H67.3156C68.5141 41.5 69.8547 43.4547 71.0281 44.9172C66.8844 44.0922 63.1984 41.9969 60.3766 39.0625ZM78.9719 44.9172C80.1453 43.4547 81.4859 41.5 82.6844 39.0625H89.6234C86.8016 41.9969 83.1156 44.0922 78.9719 44.9172ZM89.6234 10.9375H82.6844C81.4859 8.5 80.1453 6.54531 78.9719 5.08281C83.1156 5.90781 86.8016 8.00313 89.6234 10.9375ZM71.0281 5.08281C69.8547 6.54531 68.5156 8.5 67.3156 10.9375H60.3766C63.1984 8.00313 66.8844 5.90781 71.0281 5.08281Z" fill="black"/>
<path d="M70.3125 17.1875H73.4375V20.3125H70.3125V17.1875Z" fill="black"/>
<path d="M76.5625 17.1875H79.6875V20.3125H76.5625V17.1875Z" fill="black"/>
<path d="M70.3125 29.6875H73.4375V32.8125H70.3125V29.6875Z" fill="black"/>
<path d="M76.5625 29.6875H79.6875V32.8125H76.5625V29.6875Z" fill="black"/>
<path d="M41.8749 36.875L39.3749 35L37.4999 37.5V20.3125C37.4999 17.7281 39.6031 15.625 42.1874 15.625H43.7499L41.2499 17.5L43.1249 20L51.0421 14.0625L43.1249 8.12502L41.2499 10.625L43.7499 12.5H42.1874C37.8796 12.5 34.3749 16.0047 34.3749 20.3125V37.5L32.4999 35L29.9999 36.875L35.9374 44.7922L41.8749 36.875Z" fill="black"/>
<path d="M45.9374 84.0624L48.4374 85.9374H42.1874C41.3265 85.9374 40.6249 85.2374 40.6249 84.3749V79.6874L42.4999 82.1874L44.9999 80.314L39.0624 72.3953L33.1249 80.3125L35.6249 82.1859L37.4999 79.6874V84.3749C37.4999 86.9593 39.6031 89.0624 42.1874 89.0624H48.4374L45.9374 90.9374L47.8124 93.4374L55.7281 87.4999L47.8124 81.5625L45.9374 84.0624Z" fill="black"/>
<path d="M95.3125 75C95.3125 70.6922 91.8078 67.1875 87.5 67.1875H68.75C64.4422 67.1875 60.9375 70.6922 60.9375 75V89.0625H57.8125V90.625C57.8125 94.9328 61.3172 98.4375 65.625 98.4375H90.625C94.9328 98.4375 98.4375 94.9328 98.4375 90.625V89.0625H95.3125V75ZM64.0625 75C64.0625 72.4156 66.1656 70.3125 68.75 70.3125H87.5C90.0844 70.3125 92.1875 72.4156 92.1875 75V89.0625H64.0625V75ZM90.625 95.3125H65.625C63.5875 95.3125 61.85 94.0063 61.2047 92.1875H95.0437C94.4 94.0063 92.6625 95.3125 90.625 95.3125Z" fill="black"/>
<path d="M78.125 82.8125C75.5406 82.8125 73.4375 80.7094 73.4375 78.125C73.4375 75.5406 75.5406 73.4375 78.125 73.4375C80.7094 73.4375 82.8125 75.5406 82.8125 78.125C82.8125 80.7094 80.7094 82.8125 78.125 82.8125Z" fill="#C4C4C4"/>
</svg>
