<svg width="100" height="100" viewBox="0 0 100 100" fill="none" xmlns="http://www.w3.org/2000/svg">
<path d="M45.939 57.8125C40.6749 52.7531 37.4999 45.6844 37.4999 38.0484C37.4999 32.175 41.3937 27.0125 47.0421 25.3984L48.4374 25L51.0781 26.1734C58.6093 29.5203 66.7578 31.25 74.9999 31.25V38.0484C74.9999 47.4875 70.1609 56.0688 62.4999 61.0406V62.9922C62.4999 65.5297 64.0343 67.8156 66.3828 68.7766L79.8218 74.275C81.7468 71.8094 82.8124 68.7625 82.8124 65.625V28.125C82.8124 13.4781 70.8968 1.5625 56.2499 1.5625C41.6031 1.5625 29.6874 13.4781 29.6874 28.125V57.8125H45.939Z" fill="#C4C4C4"/>
<path d="M46.8749 39.0625C47.7379 39.0625 48.4374 38.3629 48.4374 37.5C48.4374 36.6371 47.7379 35.9375 46.8749 35.9375C46.012 35.9375 45.3124 36.6371 45.3124 37.5C45.3124 38.3629 46.012 39.0625 46.8749 39.0625Z" fill="black"/>
<path d="M65.6249 39.0625C66.4879 39.0625 67.1874 38.3629 67.1874 37.5C67.1874 36.6371 66.4879 35.9375 65.6249 35.9375C64.762 35.9375 64.0624 36.6371 64.0624 37.5C64.0624 38.3629 64.762 39.0625 65.6249 39.0625Z" fill="black"/>
<path d="M56.2499 56.25C52.8031 56.25 49.9999 53.4469 49.9999 50H53.1249C53.1249 51.7234 54.5265 53.125 56.2499 53.125C57.9734 53.125 59.3749 51.7234 59.3749 50H62.4999C62.4999 53.4469 59.6968 56.25 56.2499 56.25Z" fill="black"/>
<path d="M83.0046 73.8891L66.9749 67.3298C65.2046 66.6063 64.0624 64.9032 64.0624 62.9907V61.8688C71.7515 56.5548 76.5624 47.7454 76.5624 38.0485V29.6876H74.9999C66.9265 29.6876 59.0906 28.0251 51.7124 24.7454L48.5546 23.3407L46.614 23.8954C40.3281 25.6923 35.9374 31.511 35.9374 38.0485C35.9374 44.6673 38.2828 51.1173 42.4249 56.2501H15.6249C7.87025 56.2501 1.56244 62.5594 1.56244 70.3126C1.56244 78.0657 7.87025 84.3751 15.6249 84.3751H17.4671C15.2437 88.1657 14.0624 92.4282 14.0624 96.8751V98.4376H98.4374V96.8751C98.4374 86.7454 92.3796 77.7235 83.0046 73.8891ZM68.1077 71.1688L70.8124 72.2751C71.5171 75.3204 72.4328 81.7735 70.2812 84.5798C69.5703 85.5063 68.5874 85.9376 67.1874 85.9376C62.6546 85.9376 59.8687 84.8126 58.4671 84.0235L68.1077 71.1688ZM65.1515 69.9032L63.6718 71.8751H54.5843C54.6421 71.361 54.6874 70.8423 54.6874 70.3126V65.1469C55.0468 65.286 55.4077 65.4298 55.7562 65.5454L56.2499 65.7094L56.7437 65.5454C58.2218 65.0532 59.639 64.4485 60.989 63.7469C61.2453 66.3782 62.7999 68.6829 65.1515 69.9032ZM39.0624 38.0485C39.0624 32.9001 42.5203 28.3157 47.4703 26.9016L48.3218 26.6594L50.4421 27.6032C57.7468 30.8485 65.4749 32.5923 73.4374 32.7938V38.0501C73.4374 49.0219 66.5531 58.7454 56.2515 62.411C55.7531 62.2298 55.2281 62.011 54.6874 61.7735V56.2501H46.6109C41.8171 51.4204 39.0624 44.8313 39.0624 38.0485ZM15.6249 81.2501C9.59525 81.2501 4.68744 76.3438 4.68744 70.3126C4.68744 64.2813 9.59525 59.3751 15.6249 59.3751H51.5624V70.3126C51.5624 76.3438 46.6546 81.2501 40.6249 81.2501H15.6249ZM54.0312 84.0219C52.6249 84.8141 49.8406 85.9376 45.3124 85.9376C44.2093 85.9376 42.9359 85.7048 42.0312 84.3032C45.5312 83.9548 48.6452 82.3079 50.9156 79.8657L54.0312 84.0219ZM54.6874 95.3126H32.8124V87.5001H29.6874V95.3126H17.2421C17.5218 91.3704 18.8734 87.6329 21.1749 84.3751H38.5984C39.7531 87.4094 42.0953 89.0626 45.3124 89.0626C49.7031 89.0626 52.7499 88.1157 54.6874 87.1954V95.3126ZM52.8499 77.2376C53.2515 76.5313 53.5703 75.7751 53.8484 75.0001H61.3281L56.2499 81.7704L52.8499 77.2376ZM82.8124 95.3126V87.5001H79.6874V95.3126H57.8124V87.1954C59.7499 88.1157 62.7968 89.0626 67.1874 89.0626C69.5406 89.0626 71.4687 88.1688 72.7624 86.4798C75.3515 83.0985 74.8921 77.2673 74.2828 73.6969L81.8203 76.7813C89.5312 79.9344 94.6749 87.1016 95.2578 95.3126H82.8124Z" fill="black"/>
<path d="M73.378 26.6921C73.2983 25.728 73.1373 24.764 72.8951 23.8265L75.9233 23.0499C76.2076 24.1562 76.3998 25.2968 76.4936 26.4343L73.378 26.6921Z" fill="black"/>
<path d="M71.8796 20.9641C69.0843 14.8734 62.9484 10.9375 56.2499 10.9375V7.8125C64.1656 7.8125 71.4156 12.4625 74.7203 19.6609L71.8796 20.9641Z" fill="black"/>
<path d="M28.1249 75C25.5406 75 23.4374 72.8969 23.4374 70.3125C23.4374 67.7281 25.5406 65.625 28.1249 65.625C30.7093 65.625 32.8124 67.7281 32.8124 70.3125C32.8124 72.8969 30.7093 75 28.1249 75ZM28.1249 68.75C27.2624 68.75 26.5624 69.4516 26.5624 70.3125C26.5624 71.1734 27.2624 71.875 28.1249 71.875C28.9874 71.875 29.6874 71.1734 29.6874 70.3125C29.6874 69.4516 28.9874 68.75 28.1249 68.75Z" fill="black"/>
<path d="M15.6249 75C13.0406 75 10.9374 72.8969 10.9374 70.3125C10.9374 67.7281 13.0406 65.625 15.6249 65.625C18.2093 65.625 20.3124 67.7281 20.3124 70.3125C20.3124 72.8969 18.2093 75 15.6249 75ZM15.6249 68.75C14.7624 68.75 14.0624 69.4516 14.0624 70.3125C14.0624 71.1734 14.7624 71.875 15.6249 71.875C16.4874 71.875 17.1874 71.1734 17.1874 70.3125C17.1874 69.4516 16.4874 68.75 15.6249 68.75Z" fill="black"/>
<path d="M40.6249 75C38.0406 75 35.9374 72.8969 35.9374 70.3125C35.9374 67.7281 38.0406 65.625 40.6249 65.625C43.2093 65.625 45.3124 67.7281 45.3124 70.3125C45.3124 72.8969 43.2093 75 40.6249 75ZM40.6249 68.75C39.7624 68.75 39.0624 69.4516 39.0624 70.3125C39.0624 71.1734 39.7624 71.875 40.6249 71.875C41.4874 71.875 42.1874 71.1734 42.1874 70.3125C42.1874 69.4516 41.4874 68.75 40.6249 68.75Z" fill="black"/>
</svg>
